# xmcd
#
# Track frame offsets: 
#        150
#        13902
#        27900
#        45280
#        63765
#        80717
#        99027
#        119192
#        143630
#        160310
#        183415
#        196935
#
# Disc length: 3126 seconds
#
# Revision: 0
# Processed by: cddbd v1.5.2PL0 Copyright (c) Steve Scherf et al.
# Submitted via: ExactAudioCopy v0.99pb4
#
DISCID=980c340c
DTITLE=Obstawa Prezydenta - 100% na ¿ywo
DYEAR=1996
DGENRE=Blues
TTITLE0=Motorowe zycie
TTITLE1=Cygaro z bolca
TTITLE2=Jasiu badz dobry
TTITLE3=Taka zima
TTITLE4=Pieprze prace
TTITLE5=Czuje twoj oddech
TTITLE6=Wodka
TTITLE7=Uwazaj z kim sie bawic, czyli cala noc
TTITLE8=Tak powiedz mi
TTITLE9=Kazdy chlopak, kazda kobieta
TTITLE10=Nikt mnie nie zatrzyma
TTITLE11=Po prostu nie do wiary
EXTD=
EXTT0=
EXTT1=
EXTT2=
EXTT3=
EXTT4=
EXTT5=
EXTT6=
EXTT7=
EXTT8=
EXTT9=
EXTT10=
EXTT11=
PLAYORDER=
